<svg width="800" height="400" viewBox="0 0 800 400" fill="none" xmlns="http://www.w3.org/2000/svg">
<rect width="800" height="400" rx="28" fill="#06142B"/>
<rect x="24" y="24" width="752" height="352" rx="22" fill="url(#paint0_linear_2)"/>
<rect x="58" y="64" width="684" height="210" rx="22" fill="#081B39" stroke="#16CDB4" stroke-opacity="0.4" stroke-width="2"/>
<rect x="58" y="64" width="684" height="46" rx="22" fill="#0B264F"/>
<circle cx="94" cy="87" r="6" fill="#FF6B6B"/>
<circle cx="118" cy="87" r="6" fill="#FFC857"/>
<circle cx="142" cy="87" r="6" fill="#1DD1A1"/>
<rect x="96" y="136" width="240" height="102" rx="16" fill="#0A1530"/>
<path d="M122 162H226" stroke="#16CDB4" stroke-width="10" stroke-linecap="round"/>
<path d="M122 192H304" stroke="#93B9E8" stroke-width="8" stroke-linecap="round"/>
<path d="M122 216H280" stroke="#93B9E8" stroke-width="8" stroke-linecap="round"/>
<rect x="374" y="136" width="330" height="22" rx="11" fill="#DDEEFF"/>
<rect x="374" y="176" width="280" height="16" rx="8" fill="#82C9FF"/>
<rect x="374" y="208" width="242" height="16" rx="8" fill="#82C9FF"/>
<rect x="58" y="300" width="172" height="42" rx="14" fill="#0E264E"/>
<rect x="250" y="300" width="172" height="42" rx="14" fill="#0E264E"/>
<rect x="442" y="300" width="172" height="42" rx="14" fill="#0E264E"/>
<defs>
<linearGradient id="paint0_linear_2" x1="40" y1="40" x2="748" y2="368" gradientUnits="userSpaceOnUse">
<stop stop-color="#0B2558"/>
<stop offset="1" stop-color="#08111E"/>
</linearGradient>
</defs>
</svg>
