<svg width="800" height="400" viewBox="0 0 800 400" fill="none" xmlns="http://www.w3.org/2000/svg">
<rect width="800" height="400" rx="28" fill="#07142C"/>
<rect x="24" y="24" width="752" height="352" rx="22" fill="url(#paint0_linear_6)"/>
<rect x="68" y="88" width="230" height="210" rx="22" fill="#081A38" stroke="#18C6F0" stroke-opacity="0.45" stroke-width="2"/>
<path d="M110 132H252" stroke="#EAF7FF" stroke-width="14" stroke-linecap="round"/>
<path d="M110 184H186" stroke="#18C6F0" stroke-width="16" stroke-linecap="round"/>
<path d="M110 222H240" stroke="#9FC3E7" stroke-width="10" stroke-linecap="round"/>
<path d="M356 252L420 192L486 220L592 126" stroke="#18C6F0" stroke-width="14" stroke-linecap="round" stroke-linejoin="round"/>
<circle cx="356" cy="252" r="12" fill="#18C6F0"/>
<circle cx="420" cy="192" r="12" fill="#24D2B5"/>
<circle cx="486" cy="220" r="12" fill="#18C6F0"/>
<circle cx="592" cy="126" r="12" fill="#24D2B5"/>
<rect x="350" y="94" width="312" height="198" rx="22" fill="#0A162C" stroke="#24D2B5" stroke-opacity="0.32" stroke-width="2"/>
<rect x="350" y="312" width="146" height="34" rx="12" fill="#0E254B"/>
<rect x="516" y="312" width="146" height="34" rx="12" fill="#0E254B"/>
<defs>
<linearGradient id="paint0_linear_6" x1="42" y1="40" x2="754" y2="368" gradientUnits="userSpaceOnUse">
<stop stop-color="#0B2456"/>
<stop offset="1" stop-color="#08111E"/>
</linearGradient>
</defs>
</svg>
