<svg width="1200" height="800" viewBox="0 0 1200 800" fill="none" xmlns="http://www.w3.org/2000/svg">
<rect width="1200" height="800" rx="36" fill="#061327"/>
<rect x="24" y="24" width="1152" height="752" rx="30" fill="url(#bg1)"/>
<circle cx="1016" cy="164" r="138" fill="#1CCDF2" fill-opacity=".12"/>
<circle cx="1032" cy="636" r="196" fill="#23D39B" fill-opacity=".11"/>
<rect x="88" y="114" width="1024" height="572" rx="34" fill="rgba(7,18,37,.52)" stroke="rgba(154,211,255,.22)" stroke-width="2"/>
<rect x="122" y="162" width="470" height="330" rx="28" fill="#091C39" stroke="rgba(28,205,242,.34)" stroke-width="2"/>
<rect x="164" y="216" width="246" height="18" rx="9" fill="#EEF7FF"/>
<rect x="164" y="270" width="180" height="12" rx="6" fill="#1CCDF2"/>
<rect x="164" y="304" width="230" height="12" rx="6" fill="#9EC4E6"/>
<rect x="164" y="338" width="204" height="12" rx="6" fill="#9EC4E6"/>
<rect x="164" y="388" width="140" height="40" rx="20" fill="#23D39B"/>
<circle cx="838" cy="338" r="146" fill="#081A35" stroke="rgba(35,211,155,.38)" stroke-width="2"/>
<path d="M838 256C784 256 740 300 740 354C740 426 838 520 838 520C838 520 936 426 936 354C936 300 892 256 838 256Z" fill="#1CCDF2" fill-opacity=".16"/>
<circle cx="838" cy="354" r="48" fill="#1CCDF2"/>
<circle cx="838" cy="354" r="24" fill="#EAF6FF"/>
<rect x="652" y="560" width="372" height="16" rx="8" fill="#B9D6F2"/>
<rect x="652" y="598" width="286" height="12" rx="6" fill="#B9D6F2"/>
<defs>
<linearGradient id="bg1" x1="54" y1="44" x2="1144" y2="758" gradientUnits="userSpaceOnUse">
<stop stop-color="#0C285A"/>
<stop offset=".48" stop-color="#08172C"/>
<stop offset="1" stop-color="#07111F"/>
</linearGradient>
</defs>
</svg>
