<svg width="1200" height="800" viewBox="0 0 1200 800" fill="none" xmlns="http://www.w3.org/2000/svg">
<rect width="1200" height="800" rx="36" fill="#061225"/>
<rect x="24" y="24" width="1152" height="752" rx="30" fill="url(#bgx)"/>
<circle cx="1002" cy="196" r="128" fill="#1C84FF" fill-opacity=".12"/>
<circle cx="1058" cy="636" r="182" fill="#19D5A4" fill-opacity=".11"/>
<rect x="90" y="116" width="1020" height="568" rx="34" fill="rgba(7,18,37,.52)" stroke="rgba(154,211,255,.22)" stroke-width="2"/>
<rect x="126" y="176" width="306" height="332" rx="28" fill="#091936" stroke="rgba(25,213,164,.34)" stroke-width="2"/>
<rect x="170" y="244" width="198" height="18" rx="9" fill="#EEF7FF"/>
<rect x="170" y="298" width="134" height="12" rx="6" fill="#19D5A4"/>
<rect x="170" y="334" width="192" height="12" rx="6" fill="#A6C5E6"/>
<rect x="170" y="370" width="146" height="12" rx="6" fill="#A6C5E6"/>
<rect x="524" y="196" width="324" height="408" rx="26" fill="#081B39" stroke="rgba(28,132,255,.42)" stroke-width="2"/><rect x="556" y="228" width="260" height="92" rx="16" fill="#0F2852" stroke="#1C84FF" stroke-width="3"/>
<circle cx="596" cy="274" r="14" fill="#19D5A4"/><rect x="630" y="266" width="150" height="16" rx="8" fill="#A6C5E6"/>
<rect x="556" y="344" width="260" height="92" rx="16" fill="#0A2144" stroke="rgba(28,132,255,.5)" stroke-width="3"/>
<circle cx="596" cy="390" r="14" fill="#1ACDF3"/><rect x="630" y="382" width="120" height="16" rx="8" fill="#A6C5E6"/>
<rect x="556" y="460" width="260" height="92" rx="16" fill="#091A37" stroke="rgba(28,132,255,.35)" stroke-width="3"/>
<circle cx="596" cy="506" r="14" fill="#A6C5E6"/><rect x="630" y="498" width="96" height="16" rx="8" fill="rgba(166,197,230,.5)"/>
<rect x="878" y="200" width="168" height="114" rx="22" fill="#0F2852"/>
<rect x="878" y="354" width="168" height="114" rx="22" fill="#0A2144"/>
<rect x="878" y="508" width="168" height="114" rx="22" fill="#091A37"/>
<rect x="914" y="244" width="88" height="12" rx="6" fill="#DDF7FF"/>
<rect x="914" y="398" width="72" height="12" rx="6" fill="#89D4FF"/>
<rect x="914" y="552" width="96" height="12" rx="6" fill="#19D5A4"/>
<defs>
<linearGradient id="bgx" x1="54" y1="46" x2="1142" y2="758" gradientUnits="userSpaceOnUse">
<stop stop-color="#0B2758"/><stop offset=".48" stop-color="#08172C"/><stop offset="1" stop-color="#07111D"/>
</linearGradient>
</defs>
</svg>
